<svg xmlns="http://www.w3.org/2000/svg" xml:space="preserve" viewBox="79.17 0.48 481.67 481.67"><path style="stroke:#2174bc;stroke-width:0;stroke-dasharray:none;stroke-linecap:butt;stroke-dashoffset:0;stroke-linejoin:miter;stroke-miterlimit:4;fill:#8b1818;fill-rule:nonzero;opacity:1" vector-effect="non-scaling-stroke" transform="translate(320 241.31201173) scale(4.46935)" d="M-53.87205-31.01608c0-6.06178 2.40803-11.87529 6.69436-16.16162 4.28633-4.28633 10.09983-6.69436 16.16162-6.69436h62.03215c6.06178 0 11.87529 2.40803 16.16162 6.69436 4.28633 4.28633 6.69436 10.09983 6.69436 16.16162v62.03215c0 12.62301-10.23297 22.85598-22.85598 22.85598h-62.03215c-12.62301 0-22.85598-10.23297-22.85598-22.85598z"/><path style="stroke:#000;stroke-width:0;stroke-dasharray:none;stroke-linecap:butt;stroke-dashoffset:0;stroke-linejoin:miter;stroke-miterlimit:4;fill:#141414;fill-rule:nonzero;opacity:1" vector-effect="non-scaling-stroke" transform="matrix(.92 0 0 .92 131.295 138.48844784)" d="M0 40C0 17.90861 17.90861 0 40 0s40 17.90861 40 40-17.90861 40-40 40S0 62.09139 0 40z"/><path style="stroke:#000;stroke-width:0;stroke-dasharray:none;stroke-linecap:butt;stroke-dashoffset:0;stroke-linejoin:miter;stroke-miterlimit:4;fill:#141414;fill-rule:nonzero;opacity:1" vector-effect="non-scaling-stroke" transform="matrix(.92 0 0 .92 257.875 137.78844784)" d="M0 40C0 17.90861 17.90861 0 40 0s40 17.90861 40 40-17.90861 40-40 40S0 62.09139 0 40z"/><path style="stroke:#000;stroke-width:0;stroke-dasharray:none;stroke-linecap:butt;stroke-dashoffset:0;stroke-linejoin:miter;stroke-miterlimit:4;fill:#141414;fill-rule:nonzero;opacity:1" vector-effect="non-scaling-stroke" transform="matrix(.92 0 0 .92 140.485 263.87844784)" d="M0 40C0 17.90861 17.90861 0 40 0s40 17.90861 40 40-17.90861 40-40 40S0 62.09139 0 40z"/><path style="stroke:#000;stroke-width:0;stroke-dasharray:none;stroke-linecap:butt;stroke-dashoffset:0;stroke-linejoin:miter;stroke-miterlimit:4;fill:#141414;fill-rule:nonzero;opacity:1" vector-effect="non-scaling-stroke" transform="matrix(.92 0 0 .92 301.225 265.70844784)" d="M0 40C0 17.90861 17.90861 0 40 0s40 17.90861 40 40-17.90861 40-40 40S0 62.09139 0 40z"/><path style="stroke:#000;stroke-width:0;stroke-dasharray:none;stroke-linecap:butt;stroke-dashoffset:0;stroke-linejoin:miter;stroke-miterlimit:4;fill:#141414;fill-rule:nonzero;opacity:1" vector-effect="non-scaling-stroke" transform="matrix(.92 0 0 .92 373.395 146.57844784)" d="M0 40C0 17.90861 17.90861 0 40 0s40 17.90861 40 40-17.90861 40-40 40S0 62.09139 0 40z"/><path style="stroke:#000;stroke-width:0;stroke-dasharray:none;stroke-linecap:butt;stroke-dashoffset:0;stroke-linejoin:miter;stroke-miterlimit:4;fill:#510000;fill-rule:nonzero;opacity:1" vector-effect="non-scaling-stroke" transform="matrix(1.05 0 0 1.05 424.705 253.71844784)" d="M0 40C0 17.90861 17.90861 0 40 0s40 17.90861 40 40-17.90861 40-40 40S0 62.09139 0 40z"/><path style="stroke:#000;stroke-width:0;stroke-dasharray:none;stroke-linecap:butt;stroke-dashoffset:0;stroke-linejoin:miter;stroke-miterlimit:4;fill:#141414;fill-rule:nonzero;opacity:1" vector-effect="non-scaling-stroke" transform="matrix(.84 -1.37 1.53 .93 289.0001 310.33354784)" d="M20.013628 0h84.37401c11.053215 0 20.013626 9.282301 20.013626 20.7326 0 11.450296-8.960411 20.7326-20.013626 20.7326h-84.37401C8.960406 41.4652 0 32.182897 0 20.7326 0 9.282302 8.960406 0 20.013628 0z"/><path style="stroke:#000;stroke-width:0;stroke-dasharray:none;stroke-linecap:butt;stroke-dashoffset:0;stroke-linejoin:miter;stroke-miterlimit:4;fill:#141414;fill-rule:nonzero;opacity:1" vector-effect="non-scaling-stroke" transform="matrix(.84 -1.37 1.53 .93 132.0001 301.53354784)" d="M20.013628 0h84.37401c11.053215 0 20.013626 9.282301 20.013626 20.7326 0 11.450296-8.960411 20.7326-20.013626 20.7326h-84.37401C8.960406 41.4652 0 32.182897 0 20.7326 0 9.282302 8.960406 0 20.013628 0z"/><path style="stroke:#000;stroke-width:0;stroke-dasharray:none;stroke-linecap:butt;stroke-dashoffset:0;stroke-linejoin:miter;stroke-miterlimit:4;fill:#141414;fill-rule:nonzero;opacity:1" vector-effect="non-scaling-stroke" transform="matrix(1.43 -.01 .01 1.79 142.3417 138.85374784)" d="M20.013628 0h84.37401c11.053215 0 20.013626 9.282301 20.013626 20.7326 0 11.450296-8.960411 20.7326-20.013626 20.7326h-84.37401C8.960406 41.4652 0 32.182897 0 20.7326 0 9.282302 8.960406 0 20.013628 0z"/></svg>