<svg width="800" height="678" viewBox="0 0 800 678" fill="none" xmlns="http://www.w3.org/2000/svg">
<path d="M486.466 245.513C486.466 245.513 462.716 280.6 452.646 245.513C442.576 210.395 410.023 88.7939 396.849 80.0222C383.644 71.2188 383.644 71.2188 383.644 71.2188C383.644 71.2188 381.174 118.909 364.834 112.607C348.526 106.337 228.255 42.4019 218.216 28.6268L208.178 16.0551C208.178 16.0551 219.42 121.442 191.87 98.8639C191.87 98.8639 227.115 186.613 110.391 195.385C110.391 195.385 147.948 293.14 254.538 345.802C254.538 345.802 290.892 402.264 224.486 393.397C224.486 393.397 131.639 380.889 119.194 369.584C119.194 369.584 70.1738 464.901 0 468.638C0 468.638 84.1072 516.265 74.0055 600.245C74.0055 600.245 235.728 601.544 229.521 626.592C223.188 651.767 211.946 677.291 211.946 677.291C211.946 677.291 361.097 647.872 383.644 607.814C383.644 607.814 414.963 639.164 417.559 669.216C417.559 669.216 502.838 650.406 495.206 596.509C495.206 596.509 535.392 626.529 540.395 677.291L557.938 665.416C557.938 665.416 547.837 612.817 511.578 571.46C511.578 571.46 495.206 530.04 536.563 551.415C536.563 551.415 634.256 584 717.064 525.037C717.064 525.037 625.611 495.016 621.874 462.4C621.874 462.4 792.685 357.076 800 286.902C800 286.902 738.44 293.172 705.886 266.857C705.886 266.857 664.434 254.317 718.363 115.141C718.363 115.141 679.508 138.068 667.063 0C667.063 0 570.447 147.726 523.992 97.5973C523.992 97.5973 480.228 194.086 486.466 245.513Z" fill="#E25D2C"/>
</svg>
