<svg width="800" height="678" viewBox="0 0 800 678" fill="none" xmlns="http://www.w3.org/2000/svg">
<path d="M486.466 245.852C486.466 245.852 462.716 280.939 452.646 245.852C442.576 210.733 410.023 89.1328 396.849 80.361C383.644 71.5577 383.644 71.5576 383.644 71.5576C383.644 71.5576 381.174 119.248 364.834 112.946C348.526 106.676 228.255 42.7408 218.216 28.9657L208.178 16.394C208.178 16.394 219.42 121.781 191.87 99.2028C191.87 99.2028 227.115 186.952 110.391 195.723C110.391 195.723 147.948 293.479 254.538 346.141C254.538 346.141 290.892 402.603 224.486 393.736C224.486 393.736 131.639 381.228 119.194 369.923C119.194 369.923 70.1738 465.24 0 468.977C0 468.977 84.1072 516.604 74.0055 600.584C74.0055 600.584 235.728 601.883 229.521 626.931C223.188 652.106 211.946 677.63 211.946 677.63C211.946 677.63 361.097 648.211 383.644 608.153C383.644 608.153 414.963 639.503 417.559 669.555C417.559 669.555 502.838 650.745 495.206 596.848C495.206 596.848 535.392 626.868 540.395 677.63L557.938 665.755C557.938 665.755 547.837 613.156 511.578 571.799C511.578 571.799 495.206 530.379 536.563 551.754C536.563 551.754 634.256 584.339 717.064 525.375C717.064 525.375 625.611 495.355 621.874 462.738C621.874 462.738 792.685 357.414 800 287.241C800 287.241 738.44 293.511 705.886 267.196C705.886 267.196 664.434 254.655 718.363 115.48C718.363 115.48 679.508 138.406 667.063 0.338867C667.063 0.338867 570.447 148.065 523.992 97.9361C523.992 97.9361 480.228 194.425 486.466 245.852Z" fill="#EA6614"/>
</svg>
