<?xml version="1.0" encoding="UTF-8" standalone="no" ?>
<!DOCTYPE svg PUBLIC "-//W3C//DTD SVG 1.1//EN" "http://www.w3.org/Graphics/SVG/1.1/DTD/svg11.dtd">
<svg xmlns="http://www.w3.org/2000/svg" xmlns:xlink="http://www.w3.org/1999/xlink" version="1.1" width="640" height="480" viewBox="0 0 640 480" xml:space="preserve">
<desc>Created with Fabric.js 5.3.0</desc>
<defs>
</defs>
<g transform="matrix(4.4693542178 0 0 4.4693542178 320 241.3120117309)" id="rr-3xpN2ygIcvuVOTwmGl"  >
<path style="stroke: rgb(33,116,188); stroke-width: 0; stroke-dasharray: none; stroke-linecap: butt; stroke-dashoffset: 0; stroke-linejoin: miter; stroke-miterlimit: 4; fill: rgb(139,24,24); fill-rule: nonzero; opacity: 1;" vector-effect="non-scaling-stroke"  transform=" translate(0, 0)" d="M -53.87205 -31.01608 C -53.87205 -37.07786 -51.464020000000005 -42.891369999999995 -47.17769 -47.1777 C -42.89136 -51.46403 -37.07786 -53.872060000000005 -31.01607 -53.872060000000005 L 31.016080000000002 -53.872060000000005 L 31.016080000000002 -53.872060000000005 C 37.07786 -53.872060000000005 42.89137 -51.46403000000001 47.1777 -47.1777 C 51.46403 -42.89137 53.872060000000005 -37.077870000000004 53.872060000000005 -31.016080000000002 L 53.872060000000005 31.01607 L 53.872060000000005 31.01607 C 53.872060000000005 43.63908 43.63909 53.87205 31.016080000000006 53.87205 L -31.016069999999996 53.87205 L -31.016069999999996 53.87205 C -43.63907999999999 53.87205 -53.872049999999994 43.63908 -53.872049999999994 31.016070000000003 z" stroke-linecap="round" />
</g>
<g transform="matrix(1 0 0 1 320 240)" id="oWTIJkayiXCK0QRbDdkrH"  >
<g style="" vector-effect="non-scaling-stroke"   >
		<g transform="matrix(0.92 0 0 0.92 -151.905 -64.71155216)" id="bK3nL6Taabox5E94yIvQT"  >
<path style="stroke: rgb(0,0,0); stroke-width: 0; stroke-dasharray: none; stroke-linecap: butt; stroke-dashoffset: 0; stroke-linejoin: miter; stroke-miterlimit: 4; fill: rgb(20,20,20); fill-rule: nonzero; opacity: 1;" vector-effect="non-scaling-stroke"  transform=" translate(-40, -40)" d="M 0 40 C 0 17.90861 17.90861 0 40 0 C 62.091390000000004 0 80 17.90861 80 40 C 80 62.091390000000004 62.091390000000004 80 40 80 C 17.90861 80 0 62.091390000000004 0 40 z" stroke-linecap="round" />
</g>
		<g transform="matrix(0.92 0 0 0.92 -25.325 -65.41155216)" id="EZoSn9e5QJUuvwKwAGI9b"  >
<path style="stroke: rgb(0,0,0); stroke-width: 0; stroke-dasharray: none; stroke-linecap: butt; stroke-dashoffset: 0; stroke-linejoin: miter; stroke-miterlimit: 4; fill: rgb(20,20,20); fill-rule: nonzero; opacity: 1;" vector-effect="non-scaling-stroke"  transform=" translate(-40, -40)" d="M 0 40 C 0 17.90861 17.90861 0 40 0 C 62.091390000000004 0 80 17.90861 80 40 C 80 62.091390000000004 62.091390000000004 80 40 80 C 17.90861 80 0 62.091390000000004 0 40 z" stroke-linecap="round" />
</g>
		<g transform="matrix(0.92 0 0 0.92 -142.715 60.67844784)" id="gBpCdBZ9zmTcyTdiLzuyb"  >
<path style="stroke: rgb(0,0,0); stroke-width: 0; stroke-dasharray: none; stroke-linecap: butt; stroke-dashoffset: 0; stroke-linejoin: miter; stroke-miterlimit: 4; fill: rgb(20,20,20); fill-rule: nonzero; opacity: 1;" vector-effect="non-scaling-stroke"  transform=" translate(-40, -40)" d="M 0 40 C 0 17.90861 17.90861 0 40 0 C 62.091390000000004 0 80 17.90861 80 40 C 80 62.091390000000004 62.091390000000004 80 40 80 C 17.90861 80 0 62.091390000000004 0 40 z" stroke-linecap="round" />
</g>
		<g transform="matrix(0.92 0 0 0.92 18.025 62.50844784)" id="X9c1HNnSmssy557ndRNEv"  >
<path style="stroke: rgb(0,0,0); stroke-width: 0; stroke-dasharray: none; stroke-linecap: butt; stroke-dashoffset: 0; stroke-linejoin: miter; stroke-miterlimit: 4; fill: rgb(20,20,20); fill-rule: nonzero; opacity: 1;" vector-effect="non-scaling-stroke"  transform=" translate(-40, -40)" d="M 0 40 C 0 17.90861 17.90861 0 40 0 C 62.091390000000004 0 80 17.90861 80 40 C 80 62.091390000000004 62.091390000000004 80 40 80 C 17.90861 80 0 62.091390000000004 0 40 z" stroke-linecap="round" />
</g>
		<g transform="matrix(0.92 0 0 0.92 90.195 -56.62155216)" id="pRD2Z9dQouCihopGmmSgx"  >
<path style="stroke: rgb(0,0,0); stroke-width: 0; stroke-dasharray: none; stroke-linecap: butt; stroke-dashoffset: 0; stroke-linejoin: miter; stroke-miterlimit: 4; fill: rgb(20,20,20); fill-rule: nonzero; opacity: 1;" vector-effect="non-scaling-stroke"  transform=" translate(-40, -40)" d="M 0 40 C 0 17.90861 17.90861 0 40 0 C 62.091390000000004 0 80 17.90861 80 40 C 80 62.091390000000004 62.091390000000004 80 40 80 C 17.90861 80 0 62.091390000000004 0 40 z" stroke-linecap="round" />
</g>
		<g transform="matrix(1.05 0 0 1.05 146.705 55.71844784)" id="gNTw0W4gb2poK6YZmKA50"  >
<path style="stroke: rgb(0,0,0); stroke-width: 0; stroke-dasharray: none; stroke-linecap: butt; stroke-dashoffset: 0; stroke-linejoin: miter; stroke-miterlimit: 4; fill: rgb(81,0,0); fill-rule: nonzero; opacity: 1;" vector-effect="non-scaling-stroke"  transform=" translate(-40, -40)" d="M 0 40 C 0 17.90861 17.90861 0 40 0 C 62.091390000000004 0 80 17.90861 80 40 C 80 62.091390000000004 62.091390000000004 80 40 80 C 17.90861 80 0 62.091390000000004 0 40 z" stroke-linecap="round" />
</g>
		<g transform="matrix(0.84 -1.37 1.53 0.93 52.96950888 4.4)" id="Tnwa04gGxJQsALmII-50O"  >
<path style="stroke: rgb(0,0,0); stroke-width: 0; stroke-dasharray: none; stroke-linecap: butt; stroke-dashoffset: 0; stroke-linejoin: miter; stroke-miterlimit: 4; fill: rgb(20,20,20); fill-rule: nonzero; opacity: 1;" vector-effect="non-scaling-stroke"  transform=" translate(-62.200632, -20.7326)" d="M 20.013628 0 L 104.387638 0 L 104.387638 0 C 115.44085299999999 -1.04756605e-14 124.401264 9.282301 124.401264 20.7326 C 124.401264 32.182896 115.440853 41.4652 104.387638 41.4652 L 20.013627999999997 41.4652 L 20.013627999999997 41.4652 C 8.960405999999997 41.4652 -3.552713678800501e-15 32.182897000000004 -3.552713678800501e-15 20.7326 C -8.7907823788005e-15 9.282302000000001 8.960405999999997 0 20.013627999999997 0 z" stroke-linecap="round" />
</g>
		<g transform="matrix(0.84 -1.37 1.53 0.93 -104.03049112 -4.4)" id="n6z8_26GUcjHl0KezK9DL"  >
<path style="stroke: rgb(0,0,0); stroke-width: 0; stroke-dasharray: none; stroke-linecap: butt; stroke-dashoffset: 0; stroke-linejoin: miter; stroke-miterlimit: 4; fill: rgb(20,20,20); fill-rule: nonzero; opacity: 1;" vector-effect="non-scaling-stroke"  transform=" translate(-62.200632, -20.7326)" d="M 20.013628 0 L 104.387638 0 L 104.387638 0 C 115.44085299999999 -1.04756605e-14 124.401264 9.282301 124.401264 20.7326 C 124.401264 32.182896 115.440853 41.4652 104.387638 41.4652 L 20.013627999999997 41.4652 L 20.013627999999997 41.4652 C 8.960405999999997 41.4652 -3.552713678800501e-15 32.182897000000004 -3.552713678800501e-15 20.7326 C -8.7907823788005e-15 9.282302000000001 8.960405999999997 0 20.013627999999997 0 z" stroke-linecap="round" />
</g>
		<g transform="matrix(1.43 -0.01 0.01 1.79 -88.50407024 -64.65690448)" id="jeDnlIzz_zzOsxix3XabU"  >
<path style="stroke: rgb(0,0,0); stroke-width: 0; stroke-dasharray: none; stroke-linecap: butt; stroke-dashoffset: 0; stroke-linejoin: miter; stroke-miterlimit: 4; fill: rgb(20,20,20); fill-rule: nonzero; opacity: 1;" vector-effect="non-scaling-stroke"  transform=" translate(-62.200632, -20.7326)" d="M 20.013628 0 L 104.387638 0 L 104.387638 0 C 115.44085299999999 -1.04756605e-14 124.401264 9.282301 124.401264 20.7326 C 124.401264 32.182896 115.440853 41.4652 104.387638 41.4652 L 20.013627999999997 41.4652 L 20.013627999999997 41.4652 C 8.960405999999997 41.4652 -3.552713678800501e-15 32.182897000000004 -3.552713678800501e-15 20.7326 C -8.7907823788005e-15 9.282302000000001 8.960405999999997 0 20.013627999999997 0 z" stroke-linecap="round" />
</g>
</g>
</g>
</svg>