<svg xmlns="http://www.w3.org/2000/svg" xml:space="preserve" viewBox="33.55 91.8 625.77 300.27">
  <circle style="stroke:#000;stroke-width:0;stroke-dasharray:none;stroke-linecap:butt;stroke-dashoffset:0;stroke-linejoin:miter;stroke-miterlimit:4;fill:#141414;fill-rule:nonzero;opacity:1" r="40" transform="matrix(.92 0 0 .92 70.35 177.41)"/>
  <circle style="stroke:#000;stroke-width:0;stroke-dasharray:none;stroke-linecap:butt;stroke-dashoffset:0;stroke-linejoin:miter;stroke-miterlimit:4;fill:#141414;fill-rule:nonzero;opacity:1" r="40" transform="matrix(.92 0 0 .92 196.93 176.71)"/>
  <circle style="stroke:#000;stroke-width:0;stroke-dasharray:none;stroke-linecap:butt;stroke-dashoffset:0;stroke-linejoin:miter;stroke-miterlimit:4;fill:#141414;fill-rule:nonzero;opacity:1" r="40" transform="matrix(.92 0 0 .92 79.54 302.8)"/>
  <circle style="stroke:#000;stroke-width:0;stroke-dasharray:none;stroke-linecap:butt;stroke-dashoffset:0;stroke-linejoin:miter;stroke-miterlimit:4;fill:#141414;fill-rule:nonzero;opacity:1" r="40" transform="matrix(.92 0 0 .92 240.28 304.63)"/>
  <circle style="stroke:#000;stroke-width:0;stroke-dasharray:none;stroke-linecap:butt;stroke-dashoffset:0;stroke-linejoin:miter;stroke-miterlimit:4;fill:#141414;fill-rule:nonzero;opacity:1" r="40" transform="matrix(.92 0 0 .92 312.45 185.5)"/>
  <circle style="stroke:#000;stroke-width:0;stroke-dasharray:none;stroke-linecap:butt;stroke-dashoffset:0;stroke-linejoin:miter;stroke-miterlimit:4;fill:#141414;fill-rule:nonzero;opacity:1" r="40" transform="matrix(1.05 0 0 1.05 368.96 297.84)"/>
  <path style="stroke:#000;stroke-width:0;stroke-dasharray:none;stroke-linecap:butt;stroke-dashoffset:0;stroke-linejoin:miter;stroke-miterlimit:4;fill:#141414;fill-rule:nonzero;opacity:1" transform="matrix(.84 -1.37 1.53 .93 191.2551 312.4551)" d="M20.013628 0h84.37401c11.053215 0 20.013626 9.282301 20.013626 20.7326 0 11.450296-8.960411 20.7326-20.013626 20.7326h-84.37401C8.960406 41.4652 0 32.182897 0 20.7326 0 9.282302 8.960406 0 20.013628 0z"/>
  <path style="stroke:#000;stroke-width:0;stroke-dasharray:none;stroke-linecap:butt;stroke-dashoffset:0;stroke-linejoin:miter;stroke-miterlimit:4;fill:#141414;fill-rule:nonzero;opacity:1" transform="matrix(.84 -1.37 1.53 .93 34.2551 303.6551)" d="M20.013628 0h84.37401c11.053215 0 20.013626 9.282301 20.013626 20.7326 0 11.450296-8.960411 20.7326-20.013626 20.7326h-84.37401C8.960406 41.4652 0 32.182897 0 20.7326 0 9.282302 8.960406 0 20.013628 0z"/>
  <path style="stroke:#000;stroke-width:0;stroke-dasharray:none;stroke-linecap:butt;stroke-dashoffset:0;stroke-linejoin:miter;stroke-miterlimit:4;fill:#141414;fill-rule:nonzero;opacity:1" transform="matrix(1.43 -.01 .01 1.79 44.5967 140.9753)" d="M20.013628 0h84.37401c11.053215 0 20.013626 9.282301 20.013626 20.7326 0 11.450296-8.960411 20.7326-20.013626 20.7326h-84.37401C8.960406 41.4652 0 32.182897 0 20.7326 0 9.282302 8.960406 0 20.013628 0z"/>
  <path style="stroke:#000;stroke-width:0;stroke-dasharray:none;stroke-linecap:butt;stroke-dashoffset:0;stroke-linejoin:miter;stroke-miterlimit:4;fill:#5b0000;fill-rule:nonzero;opacity:1" transform="matrix(.8 0 0 .89 471.396 194.2013)" d="M0 51.82677C0 23.203635 23.203636 0 51.82677 0c13.745312 0 26.927654 5.4603047 36.64706 15.17971 9.719406 9.719404 15.17971 22.901749 15.17971 36.64706 0 28.623135-23.203636 51.82677-51.82677 51.82677C23.203635 103.65354 0 80.449904 0 51.82677zm25.913385 0c0 14.311565 11.60182 25.913387 25.913385 25.913387 14.311565 0 25.913387-11.601822 25.913387-25.913387S66.138335 25.913385 51.82677 25.913385 25.913385 37.515205 25.913385 51.82677z"/>
  <path style="stroke:#5b0000;stroke-width:17;stroke-dasharray:none;stroke-linecap:butt;stroke-dashoffset:0;stroke-linejoin:miter;stroke-miterlimit:4;fill:#5b0000;fill-rule:nonzero;opacity:1" transform="matrix(1.59 0 0 1.65 431.9103 156.4105)" d="M0 51.82677C0 23.203635 23.203636 0 51.82677 0c13.745312 0 26.927654 5.4603047 36.64706 15.17971 9.719406 9.719404 15.17971 22.901749 15.17971 36.64706 0 28.623135-23.203636 51.82677-51.82677 51.82677C23.203635 103.65354 0 80.449904 0 51.82677zm25.913385 0c0 14.311565 11.60182 25.913387 25.913385 25.913387 14.311565 0 25.913387-11.601822 25.913387-25.913387S66.138335 25.913385 51.82677 25.913385 25.913385 37.515205 25.913385 51.82677z" stroke-linecap="round"/>
</svg>
